<svg xmlns="http://www.w3.org/2000/svg" width="600" height="900" viewBox="0 0 600 900"><defs><linearGradient id="g" x2=".5" y2="1"><stop stop-color="#1e3e4e"/><stop offset="1" stop-color="#091522"/></linearGradient><radialGradient id="p" cx=".3" cy=".25"><stop stop-color="#ffe0a6"/><stop offset=".5" stop-color="#b77c52"/><stop offset="1" stop-color="#24384c"/></radialGradient></defs><rect width="600" height="900" fill="url(#g)"/><rect x="0" y="180" width="85" height="540" fill="#182a39"/><rect x="78" y="280" width="100" height="440" fill="#2f505b"/><rect x="170" y="90" width="100" height="630" fill="#102b3b"/><rect x="280" y="240" width="110" height="480" fill="#45616a"/><rect x="400" y="130" width="105" height="590" fill="#1b394a"/><rect x="520" y="330" width="80" height="390" fill="#1e3647"/><rect x="25" y="350" width="7" height="18" fill="#d9a768" opacity=".7"/><rect x="25" y="398" width="7" height="18" fill="#d9a768" opacity=".7"/><rect x="25" y="446" width="7" height="18" fill="#d9a768" opacity=".7"/><rect x="25" y="494" width="7" height="18" fill="#d9a768" opacity=".7"/><rect x="25" y="542" width="7" height="18" fill="#d9a768" opacity=".7"/><rect x="25" y="590" width="7" height="18" fill="#d9a768" opacity=".7"/><rect x="70" y="350" width="7" height="18" fill="#d9a768" opacity=".7"/><rect x="70" y="398" width="7" height="18" fill="#d9a768" opacity=".7"/><rect x="70" y="446" width="7" height="18" fill="#d9a768" opacity=".7"/><rect x="70" y="494" width="7" height="18" fill="#d9a768" opacity=".7"/><rect x="70" y="542" width="7" height="18" fill="#d9a768" opacity=".7"/><rect x="70" y="590" width="7" height="18" fill="#d9a768" opacity=".7"/><rect x="115" y="350" width="7" height="18" fill="#d9a768" opacity=".7"/><rect x="115" y="398" width="7" height="18" fill="#d9a768" opacity=".7"/><rect x="115" y="446" width="7" height="18" fill="#d9a768" opacity=".7"/><rect x="115" y="494" width="7" height="18" fill="#d9a768" opacity=".7"/><rect x="115" y="542" width="7" height="18" fill="#d9a768" opacity=".7"/><rect x="115" y="590" width="7" height="18" fill="#d9a768" opacity=".7"/><rect x="160" y="350" width="7" height="18" fill="#d9a768" opacity=".7"/><rect x="160" y="398" width="7" height="18" fill="#d9a768" opacity=".7"/><rect x="160" y="446" width="7" height="18" fill="#d9a768" opacity=".7"/><rect x="160" y="494" width="7" height="18" fill="#d9a768" opacity=".7"/><rect x="160" y="542" width="7" height="18" fill="#d9a768" opacity=".7"/><rect x="160" y="590" width="7" height="18" fill="#d9a768" opacity=".7"/><rect x="205" y="350" width="7" height="18" fill="#d9a768" opacity=".7"/><rect x="205" y="398" width="7" height="18" fill="#d9a768" opacity=".7"/><rect x="205" y="446" width="7" height="18" fill="#d9a768" opacity=".7"/><rect x="205" y="494" width="7" height="18" fill="#d9a768" opacity=".7"/><rect x="205" y="542" width="7" height="18" fill="#d9a768" opacity=".7"/><rect x="205" y="590" width="7" height="18" fill="#d9a768" opacity=".7"/><rect x="250" y="350" width="7" height="18" fill="#d9a768" opacity=".7"/><rect x="250" y="398" width="7" height="18" fill="#d9a768" opacity=".7"/><rect x="250" y="446" width="7" height="18" fill="#d9a768" opacity=".7"/><rect x="250" y="494" width="7" height="18" fill="#d9a768" opacity=".7"/><rect x="250" y="542" width="7" height="18" fill="#d9a768" opacity=".7"/><rect x="250" y="590" width="7" height="18" fill="#d9a768" opacity=".7"/><rect x="295" y="350" width="7" height="18" fill="#d9a768" opacity=".7"/><rect x="295" y="398" width="7" height="18" fill="#d9a768" opacity=".7"/><rect x="295" y="446" width="7" height="18" fill="#d9a768" opacity=".7"/><rect x="295" y="494" width="7" height="18" fill="#d9a768" opacity=".7"/><rect x="295" y="542" width="7" height="18" fill="#d9a768" opacity=".7"/><rect x="295" y="590" width="7" height="18" fill="#d9a768" opacity=".7"/><rect x="340" y="350" width="7" height="18" fill="#d9a768" opacity=".7"/><rect x="340" y="398" width="7" height="18" fill="#d9a768" opacity=".7"/><rect x="340" y="446" width="7" height="18" fill="#d9a768" opacity=".7"/><rect x="340" y="494" width="7" height="18" fill="#d9a768" opacity=".7"/><rect x="340" y="542" width="7" height="18" fill="#d9a768" opacity=".7"/><rect x="340" y="590" width="7" height="18" fill="#d9a768" opacity=".7"/><rect x="385" y="350" width="7" height="18" fill="#d9a768" opacity=".7"/><rect x="385" y="398" width="7" height="18" fill="#d9a768" opacity=".7"/><rect x="385" y="446" width="7" height="18" fill="#d9a768" opacity=".7"/><rect x="385" y="494" width="7" height="18" fill="#d9a768" opacity=".7"/><rect x="385" y="542" width="7" height="18" fill="#d9a768" opacity=".7"/><rect x="385" y="590" width="7" height="18" fill="#d9a768" opacity=".7"/><rect x="430" y="350" width="7" height="18" fill="#d9a768" opacity=".7"/><rect x="430" y="398" width="7" height="18" fill="#d9a768" opacity=".7"/><rect x="430" y="446" width="7" height="18" fill="#d9a768" opacity=".7"/><rect x="430" y="494" width="7" height="18" fill="#d9a768" opacity=".7"/><rect x="430" y="542" width="7" height="18" fill="#d9a768" opacity=".7"/><rect x="430" y="590" width="7" height="18" fill="#d9a768" opacity=".7"/><rect x="475" y="350" width="7" height="18" fill="#d9a768" opacity=".7"/><rect x="475" y="398" width="7" height="18" fill="#d9a768" opacity=".7"/><rect x="475" y="446" width="7" height="18" fill="#d9a768" opacity=".7"/><rect x="475" y="494" width="7" height="18" fill="#d9a768" opacity=".7"/><rect x="475" y="542" width="7" height="18" fill="#d9a768" opacity=".7"/><rect x="475" y="590" width="7" height="18" fill="#d9a768" opacity=".7"/><rect x="520" y="350" width="7" height="18" fill="#d9a768" opacity=".7"/><rect x="520" y="398" width="7" height="18" fill="#d9a768" opacity=".7"/><rect x="520" y="446" width="7" height="18" fill="#d9a768" opacity=".7"/><rect x="520" y="494" width="7" height="18" fill="#d9a768" opacity=".7"/><rect x="520" y="542" width="7" height="18" fill="#d9a768" opacity=".7"/><rect x="520" y="590" width="7" height="18" fill="#d9a768" opacity=".7"/><rect x="565" y="350" width="7" height="18" fill="#d9a768" opacity=".7"/><rect x="565" y="398" width="7" height="18" fill="#d9a768" opacity=".7"/><rect x="565" y="446" width="7" height="18" fill="#d9a768" opacity=".7"/><rect x="565" y="494" width="7" height="18" fill="#d9a768" opacity=".7"/><rect x="565" y="542" width="7" height="18" fill="#d9a768" opacity=".7"/><rect x="565" y="590" width="7" height="18" fill="#d9a768" opacity=".7"/><path d="M0 740 300 565 600 740V900H0" fill="#12202b"/><path d="M300 580v125m-12-63h24m-25 101 13-40 14 40" stroke="#10151b" stroke-width="18"/><circle cx="300" cy="572" r="14" fill="#10151b"/><rect y="705" width="600" height="195" fill="#132733" opacity=".8"/><g fill="#fff0d5" font-family="Roboto" text-anchor="middle"><text x="300" y="75" font-size="17" letter-spacing="7">CINEGO PRESENTS</text><text x="300" y="763" font-size="36" font-weight="bold">THÀNH PHỐ</text><text x="300" y="814" font-size="42" font-weight="bold">KHÔNG NGỦ</text><text x="300" y="852" font-size="12" letter-spacing="3">EVERY STREET HAS A SECRET</text><text x="300" y="883" font-size="10" opacity=".65">CINEGO · ĐIỆN ẢNH KẾT NỐI</text></g></svg>